<svg xmlns="http://www.w3.org/2000/svg" version="1.1" xmlns:xlink="http://www.w3.org/1999/xlink" xmlns:svgjs="http://svgjs.dev/svgjs" width="1000" height="1000" viewBox="0 0 1000 1000"><rect width="1000" height="1000" fill="#000000"></rect><g transform="matrix(0.7,0,0,0.7,150.01848941998833,286.90821161605675)"><svg viewBox="0 0 395 247" data-background-color="#ffffff" preserveAspectRatio="xMidYMid meet" height="625" width="1000" xmlns="http://www.w3.org/2000/svg" xmlns:xlink="http://www.w3.org/1999/xlink"><g id="tight-bounds" transform="matrix(1,0,0,1,-0.010433315564853274,-0.09999999999999432)"><svg viewBox="0 0 395.0208666311297 247.2" height="247.2" width="395.0208666311297"><g><svg viewBox="0 0 395.52 247.5123525342775" height="247.2" width="395.0208666311297"><g transform="matrix(1,0,0,1,0,209.2692366415906)"><svg viewBox="0 0 395.52 38.24311589268691" height="38.24311589268691" width="395.52"><g id="textblocktransform"><svg viewBox="0 0 395.52 38.24311589268691" height="38.24311589268691" width="395.52" id="textblock"><g><svg viewBox="0 0 395.52 38.24311589268691" height="38.24311589268691" width="395.52"><g transform="matrix(1,0,0,1,0,0)"><svg width="395.52" viewBox="1.1 -34.9 367.12 35.5" height="38.24311589268691" data-palette-color="#4c00c7"><path d="M12.9 0L12.9-30.15 1.1-30.15 1.1-34.3 29.45-34.3 29.45-30.15 17.65-30.15 17.65 0 12.9 0ZM34.5 0L34.5-34.3 60.9-34.3 60.9-30.15 39.25-30.15 39.25-19.6 58.7-19.6 58.7-15.45 39.25-15.45 39.25-4.15 61.2-4.15 61.2 0 34.5 0ZM82.95 0.6Q74.65 0.6 70.45-3.83 66.25-8.25 66.25-17.15L66.25-17.15Q66.25-26.05 70.45-30.48 74.65-34.9 82.95-34.9L82.95-34.9Q89.65-34.9 93.67-31.58 97.7-28.25 97.7-21.9L97.7-21.9 92.84-21.9Q92.84-26.3 90.22-28.58 87.59-30.85 82.95-30.85L82.95-30.85Q76.9-30.85 74.05-27.65 71.2-24.45 71.15-17.25L71.15-17.25 71.15-17.15Q71.15-9.9 74-6.68 76.84-3.45 82.95-3.45L82.95-3.45Q87.7-3.45 90.37-5.7 93.05-7.95 93.05-12.3L93.05-12.3 97.7-12.3Q97.7-5.9 93.7-2.65 89.7 0.6 82.95 0.6L82.95 0.6ZM103.94 0L103.94-34.3 108.69-34.3 108.69-19.6 127.39-19.6 127.39-34.3 132.14-34.3 132.14 0 127.39 0 127.39-15.45 108.69-15.45 108.69 0 103.94 0ZM140.04 0L140.04-34.3 156.74-34.3Q161.89-34.3 164.64-31.45 167.39-28.6 167.39-23.85L167.39-23.85Q167.39-19 164.52-16.07 161.64-13.15 156.74-13.15L156.74-13.15 144.79-13.15 144.79 0 140.04 0ZM144.79-17.3L156.49-17.3Q159.29-17.3 160.94-19.05 162.59-20.8 162.59-23.8L162.59-23.8Q162.59-26.85 161.04-28.5 159.49-30.15 156.49-30.15L156.49-30.15 144.79-30.15 144.79-17.3ZM188.89 0.6Q180.74 0.6 176.26-3.88 171.79-8.35 171.79-17.15L171.79-17.15Q171.79-25.95 176.26-30.43 180.74-34.9 188.89-34.9L188.89-34.9Q197.09-34.9 201.56-30.43 206.04-25.95 206.04-17.15L206.04-17.15Q206.04-8.4 201.56-3.9 197.09 0.6 188.89 0.6L188.89 0.6ZM188.89-3.45Q194.84-3.45 197.99-6.68 201.14-9.9 201.14-16.95L201.14-16.95 201.14-17.15Q201.09-24.3 197.94-27.58 194.79-30.85 188.89-30.85L188.89-30.85Q183.04-30.85 179.89-27.58 176.74-24.3 176.69-17.15L176.69-17.15 176.69-16.95Q176.69-9.9 179.84-6.68 182.99-3.45 188.89-3.45L188.89-3.45ZM212.94 0L212.94-34.3 217.69-34.3 217.69 0 212.94 0ZM226.18 0L226.18-34.3 230.43-34.3 248.53-10.4 249.73-8.8 249.93-8.85 249.93-11.15 249.93-34.3 254.38-34.3 254.38 0 250.33 0 232.13-24.2 230.83-25.95 230.63-25.9 230.63-23.85 230.63 0 226.18 0ZM271.23 0L271.23-30.15 259.43-30.15 259.43-34.3 287.78-34.3 287.78-30.15 275.98-30.15 275.98 0 271.23 0ZM305.83 0L305.83-34.3 322.38-34.3Q326.68-34.3 329.3-32 331.93-29.7 331.93-25.9L331.93-25.9Q331.93-23 330.33-20.9 328.73-18.8 326.23-18L326.23-18 326.23-17.8Q329.28-17.1 331.08-14.9 332.88-12.7 332.88-9.1L332.88-9.1Q332.88-4.5 330-2.25 327.13 0 322.38 0L322.38 0 305.83 0ZM310.58-19.65L321.43-19.65Q323.98-19.65 325.53-21.13 327.08-22.6 327.08-24.95L327.08-24.95Q327.08-27.55 325.68-28.85 324.28-30.15 321.83-30.15L321.83-30.15 310.58-30.15 310.58-19.65ZM310.58-4.15L322.28-4.15Q328.03-4.15 328.03-9.7L328.03-9.7Q328.03-15.5 321.93-15.5L321.93-15.5 310.58-15.5 310.58-4.15ZM335.57 0L348.87-34.3 354.92-34.3 368.22 0 363.17 0 359.72-9.15 343.82-9.15 340.47 0 335.57 0ZM345.37-13.3L358.17-13.3 354.17-24 351.87-30.2 351.62-30.2 349.37-24.1 345.37-13.3Z" opacity="1" transform="matrix(1,0,0,1,0,0)" fill="#ffffff" class="wordmark-text-0" data-fill-palette-color="primary" id="text-0"></path></svg></g></svg></g></svg></g></svg></g><g transform="matrix(1,0,0,1,97.05242206394938,0)"><svg viewBox="0 0 201.41515587210122 200.24095481410865" height="200.24095481410865" width="201.41515587210122"><g><svg xmlns="http://www.w3.org/2000/svg" viewBox="20 20.173631984616488 60.018743579525974 59.668848995350714" x="0" y="0" height="200.24095481410865" width="201.41515587210122" class="icon-icon-0" data-fill-palette-color="accent" id="icon-0"><g data-name="Calque 2" fill="#4c00c7" data-fill-palette-color="accent"><path d="M23.82 23.07A1.82 1.82 0 1 1 22 24.88 1.82 1.82 0 0 1 23.82 23.07Zm0 5.58a3.73 3.73 0 0 0 2-0.56c2.07 1.44 9.08 6.45 10.21 7.14a6.25 6.25 0 0 0 3.19 1.25c0.63 0 2 0.06 4.13 0.06A2.75 2.75 0 0 0 45.8 38a2.76 2.76 0 1 0-2.69-3.32c-1.94 0-3.26 0-3.82-0.06A3.81 3.81 0 0 1 37 33.71c-1-0.63-7.64-5.39-9.9-7A4 4 0 0 0 27.57 25a3.7 3.7 0 0 0-3.7-3.7 3.74 3.74 0 0 0-3.7 3.7A3.6 3.6 0 0 0 23.82 28.64Z" fill="#ffffff" data-fill-palette-color="accent"></path><path d="M22.13 44.61a1.82 1.82 0 1 1 1.82 1.82A1.78 1.78 0 0 1 22.13 44.61Zm5.39 0.94H33a2.71 2.71 0 0 0 2.57 1.82 2.76 2.76 0 0 0 0-5.51A2.71 2.71 0 0 0 33 43.67H27.52a3.76 3.76 0 0 0-3.57-2.76 3.7 3.7 0 0 0-3.7 3.7 3.74 3.74 0 0 0 3.7 3.7A3.52 3.52 0 0 0 27.52 45.55Z" fill="#ffffff" data-fill-palette-color="accent"></path><path d="M28.33 49.87a1.82 1.82 0 1 1-1.82 1.82A1.82 1.82 0 0 1 28.33 49.87Zm0 5.58a3.7 3.7 0 0 0 3.57-2.76H33a2.72 2.72 0 0 0 2.57 1.82 2.76 2.76 0 0 0 0-5.51A2.71 2.71 0 0 0 33 50.81H31.9a3.76 3.76 0 0 0-3.57-2.76 3.7 3.7 0 0 0 0 7.39Z" fill="#ffffff" data-fill-palette-color="accent"></path><path d="M23.7 75.24a1.82 1.82 0 1 1 1.82-1.82A1.78 1.78 0 0 1 23.7 75.24Zm1.06-5.39V63.4c0-2.94 1-3.57 2.69-3.57 2.07 0 4.38 0 5.39 0.06a2.73 2.73 0 0 0 2.63 1.82 2.76 2.76 0 1 0 0-5.51A2.71 2.71 0 0 0 32.9 58c-1.06 0-3.38-0.06-5.39-0.06-4.64 0-4.64 4.07-4.64 5.45v6.39A3.76 3.76 0 0 0 20 73.42a3.7 3.7 0 0 0 3.7 3.7 3.74 3.74 0 0 0 3.7-3.7A3.58 3.58 0 0 0 24.76 69.86Z" fill="#ffffff" data-fill-palette-color="accent"></path><path d="M75.06 75.24a1.82 1.82 0 1 1 1.82-1.82A1.82 1.82 0 0 1 75.06 75.24Zm0.81-5.45V63.4c0-1.31 0-5.45-4.57-5.45-2.07 0-4.38 0-5.39 0.06a2.71 2.71 0 0 0-2.57-1.82 2.76 2.76 0 1 0 0 5.51A2.85 2.85 0 0 0 66 59.9c1.06 0 3.38-0.06 5.39-0.06C73 59.83 74 60.4 74 63.4v6.45a3.7 3.7 0 0 0 1 7.26 3.71 3.71 0 0 0 0.82-7.33Z" fill="#ffffff" data-fill-palette-color="accent"></path><path d="M72.42 23.69A1.57 1.57 0 1 1 74 25.26 1.59 1.59 0 0 1 72.42 23.69ZM63.59 47.37A2.76 2.76 0 0 0 66 45.86h4.57c4.26 0 4.26-3.76 4.26-5V27a3.46 3.46 0 1 0-4.26-3.38A3.44 3.44 0 0 0 73.05 27v13.9c0 2.63-0.82 3.13-2.38 3.13H66.35a2.75 2.75 0 0 0-5.45 0.56A2.63 2.63 0 0 0 63.59 47.37Z" fill="#ffffff" data-fill-palette-color="accent"></path><path d="M76.37 50.13a1.82 1.82 0 1 1-1.82 1.82A1.78 1.78 0 0 1 76.37 50.13Zm-13 4.57A2.71 2.71 0 0 0 66 52.88h6.77a3.76 3.76 0 0 0 3.57 2.76A3.7 3.7 0 1 0 72.74 51H66a2.71 2.71 0 0 0-2.57-1.82 2.78 2.78 0 0 0-2.76 2.76A2.73 2.73 0 0 0 63.4 54.7Z" fill="#ffffff" data-fill-palette-color="accent"></path><rect x="40.48" y="39.98" width="18.04" height="23.93" rx="3.95" ry="3.95" fill="#ffffff" data-fill-palette-color="accent"></rect><path d="M40.48 24.45a1.82 1.82 0 1 1-1.82 1.82A1.86 1.86 0 0 1 40.48 24.45Zm0 5.58A3.7 3.7 0 0 0 44 27.33h6.26c0.69 0 1.31 0 1.57 0.25s0.31 0.44 0.31 1.25c0 1.13 0 2.63-0.06 3.82a2.76 2.76 0 1 0 3.76 2.57 2.76 2.76 0 0 0-1.94-2.63c0-1.19 0.06-2.63 0.06-3.76a3.32 3.32 0 0 0-0.82-2.57 3.69 3.69 0 0 0-2.88-0.75h-6.2A3.71 3.71 0 1 0 40.48 30Z" fill="#ffffff" data-fill-palette-color="accent"></path><path d="M35 76.18a1.82 1.82 0 1 1-1.82-1.82A1.78 1.78 0 0 1 35 76.18ZM45.8 66A2.71 2.71 0 0 0 43.3 67.6h-7c-1.31 0-4.07 0-4.07 3.7v1.25a3.68 3.68 0 0 0 0.88 7.27 3.74 3.74 0 0 0 3.7-3.7 3.7 3.7 0 0 0-2.69-3.57c0-0.37-0.06-0.82-0.06-1.25 0-1.69 0.56-1.82 2.19-1.82h6.83a2.69 2.69 0 0 0 2.63 2 2.78 2.78 0 0 0 2.76-2.76A2.69 2.69 0 0 0 45.8 66Z" fill="#ffffff" data-fill-palette-color="accent"></path><path d="M62.71 78a1.82 1.82 0 0 1-1.82-1.82 1.87 1.87 0 0 1 1.82-1.88 1.82 1.82 0 0 1 1.82 1.82A1.87 1.87 0 0 1 62.71 78Zm0.88-5.45V71.29c0-3.7-2.76-3.7-4.07-3.7H55.7A2.67 2.67 0 0 0 53.2 66a2.76 2.76 0 1 0 2.63 3.51h3.7c1.63 0 2.19 0.12 2.19 1.82a8.09 8.09 0 0 1-0.06 1.25 3.7 3.7 0 1 0 4.7 3.57A3.57 3.57 0 0 0 63.59 72.55Z" fill="#ffffff" data-fill-palette-color="accent"></path></g></svg></g></svg></g><g></g></svg></g><defs></defs></svg><rect width="395.0208666311297" height="247.2" fill="none" stroke="none" visibility="hidden"></rect></g></svg></g></svg>