<svg width="94" height="94" viewBox="0 0 94 94" fill="none" xmlns="http://www.w3.org/2000/svg">
<path d="M47 0C21.0466 0 0 21.0466 0 47C0 72.9534 21.0466 94 47 94C72.9534 94 94 72.9534 94 47C94 21.0466 72.9534 0 47 0ZM47.9961 74.3648C47.9969 74.3648 47.9954 74.3648 47.9961 74.3648H47.9847C43.2765 74.3626 38.6501 73.1822 34.5414 70.9418L19.6295 74.8525L23.6205 60.2797C21.1585 56.0155 19.8633 51.1775 19.8654 46.2212C19.8719 30.7161 32.4911 18.1019 47.9961 18.1019C55.5206 18.1048 62.584 21.0337 67.8945 26.3486C73.2059 31.6642 76.129 38.7297 76.1261 46.2434C76.1197 61.7492 63.4991 74.3648 47.9961 74.3648Z" fill="#25D366"/>
<path d="M48.0055 22.8517C35.1088 22.8517 24.6202 33.3359 24.6145 46.2233C24.6131 50.6396 25.8495 54.9404 28.1896 58.6618L28.7454 59.5461L26.383 68.1714L35.2321 65.8506L36.0862 66.3569C39.6756 68.4869 43.7907 69.6136 47.9861 69.615H47.9955C60.8822 69.615 71.3707 59.1301 71.3764 46.242C71.3786 39.9962 68.9488 34.1241 64.5347 29.7063C60.1205 25.2886 54.2498 22.8538 48.0055 22.8517ZM61.7578 56.2722C61.1719 57.9131 58.3642 59.4112 57.0138 59.6135C55.8025 59.7942 54.2706 59.8695 52.5867 59.3352C51.5655 59.011 50.2567 58.5786 48.5792 57.855C41.5288 54.8113 36.9239 47.7143 36.5725 47.2453C36.2211 46.7762 33.7024 43.435 33.7024 39.9761C33.7024 36.5179 35.5183 34.8176 36.1623 34.1147C36.807 33.4112 37.5686 33.2355 38.0369 33.2355C38.5052 33.2355 38.9743 33.2398 39.3838 33.2599C39.8155 33.2814 40.395 33.0956 40.9651 34.4661C41.551 35.8732 42.9567 39.3314 43.1324 39.6828C43.3081 40.0349 43.425 40.4451 43.1912 40.9142C42.9567 41.3832 42.1778 42.3951 41.4341 43.3174C41.1222 43.7039 40.7155 44.0482 41.1257 44.7517C41.5352 45.4545 42.9466 47.7559 45.0357 49.6191C47.7208 52.013 49.9856 52.7545 50.6884 53.1066C51.3905 53.4581 51.8007 53.3992 52.2109 52.9309C52.6204 52.4619 53.968 50.8791 54.4363 50.1756C54.9046 49.4721 55.3736 49.5897 56.0176 49.8242C56.6624 50.058 60.1177 51.7584 60.8205 52.1098C61.5233 52.4619 61.9916 52.6376 62.1673 52.9309C62.3437 53.2243 62.3437 54.6306 61.7578 56.2722Z" fill="#25D366"/>
</svg>
